<?xml version="1.0" encoding="utf-8" ?><svg xmlns="http://www.w3.org/2000/svg" xmlns:xlink="http://www.w3.org/1999/xlink" width="455" height="114" viewBox="0 0 455 114"><clipPath id="cl_4"><rect width="454.63739" height="113.93753"/></clipPath><g clip-path="url(#cl_4)"><path fill="white" transform="scale(0.999203 0.999452)" d="M32.1634 2.5967C32.1509 2.59325 32.1381 2.58934 32.1253 2.5857C32.0623 4.26365 32.0018 5.98141 32.1036 7.6576C32.1964 9.18531 32.31 10.7293 32.486 12.25C32.6962 14.0651 34.1538 24.6131 35.0341 25.5072C35.6264 26.1088 37.1442 26.4125 37.9522 26.655C37.1564 24.408 36.6901 22.0531 36.2444 19.7165C35.782 17.2929 35.3596 14.8684 35.1138 12.4114C34.9688 10.9659 34.9231 9.51629 34.8015 8.07059C36.2482 9.05763 38.1487 11.1539 39.4293 12.4566C45.5068 18.5894 50.8623 25.3974 55.3913 32.7482C56.2197 34.1222 56.8601 35.6128 57.654 37.0112C58.5986 36.3933 59.5077 35.753 60.38 35.0355C63.3221 32.6154 65.5913 30.2682 69.5839 29.736C70.8037 29.5734 71.9442 29.5654 73.1561 29.817C76.9237 30.5994 78.3772 32.5955 81.4937 34.2333C82.6316 34.8314 83.9257 35.1702 85.1656 35.4877C85.9125 35.679 89.9785 36.5504 90.2808 36.8963C90.2972 36.9152 90.3081 36.9386 90.3215 36.9597C90.2396 37.0934 90.2274 37.1171 90.062 37.1485C89.6266 37.2306 89.104 37.1991 88.6014 37.1688C88.3404 37.153 88.0848 37.1376 87.8495 37.1386C87.0434 37.1418 86.2338 37.2083 85.4303 37.2669C81.3119 37.5658 76.6415 39.825 74.1327 43.1514C72.6725 45.087 71.4412 47.3024 70.4645 49.519C69.6207 51.4346 68.9016 53.3965 67.9557 55.2691C66.6085 57.9366 64.853 60.3078 62.789 62.4618C61.2172 64.1024 59.2962 65.5792 57.3922 66.816C53.5164 69.3338 48.676 71.5021 46.0885 75.5091C44.7103 77.6429 43.925 80.1802 43.6277 82.6915C43.5436 83.4035 43.509 84.1354 43.5048 84.8518C43.5041 84.9834 43.5244 85.2449 43.5481 85.5509C43.6009 86.2311 43.6708 87.1307 43.5637 87.3094C43.3557 87.2874 43.2866 87.2362 43.1512 87.0685C42.5362 86.3037 42.0732 84.4893 41.764 83.5024C39.7756 77.1491 38.9346 70.6314 40.0255 64.0045C40.3202 62.2304 40.6895 60.4694 41.1327 58.7267C41.3749 57.7862 41.6927 56.8573 41.9068 55.9117C44.1535 56.1811 48.0882 55.9472 50.1884 55.0429C48.9125 54.7603 47.598 54.7853 46.3064 54.6064C42.7423 54.1126 39.4456 53.0832 36.2354 51.4515C35.077 50.8627 34.0168 50.1923 32.9493 49.4522C32.1468 48.896 31.3359 48.199 30.436 47.8189C29.8383 48.0806 28.526 48.4611 28.1282 48.9354C31.3138 51.9798 35.164 54.0611 39.2972 55.5024C38.1928 58.913 37.4722 62.4362 37.1487 66.0064C37.0376 67.2054 36.87 68.4096 36.8572 69.6144C36.8044 74.5824 37.9308 79.9664 39.6834 84.593C40.3893 86.4563 41.284 88.2605 42.1999 90.0291C43.2181 91.9952 45.2194 95.2202 46.9375 96.5987C45.012 91.2093 44.3432 84.3123 46.8524 78.9962C48.9333 74.5866 53.1439 72.5981 57.0648 70.1491C59.3202 68.7402 61.5192 67.2278 63.4965 65.4416C65.9871 63.2323 68.0789 60.6115 69.6802 57.6928C73.4949 50.641 74.4533 42.8854 83.0853 39.8221C88.5138 37.896 97.981 39.3037 103.641 40.3245C104.459 40.472 105.284 40.5936 106.098 40.7606C106.376 40.8176 106.654 40.8806 106.934 40.9438C107.883 41.1585 108.844 41.3759 109.811 41.369C108.545 40.639 107.01 40.1325 105.644 39.6106C101.309 37.9219 96.8674 36.5213 92.3481 35.4176C90.0504 34.8384 87.6457 34.4224 85.4223 33.6C83.5618 32.912 82.2642 31.7245 80.7016 30.5683C78.9868 29.2995 77.0639 28.2221 75.005 27.6342C72.4783 26.9126 70.0114 26.8397 67.4693 27.5181C65.4786 28.0496 63.6297 29.073 61.9961 30.3184C61.2824 30.8627 59.2908 32.865 58.6133 33.0422C58.0709 32.3331 57.6556 31.4989 57.1717 30.7443C56.054 29.001 54.926 27.2816 53.7224 25.5958C48.5913 18.2643 42.6127 11.5644 35.9103 5.63498C35.1836 4.99542 32.965 2.8143 32.1634 2.5967Z"/><path fill="white" transform="scale(0.999203 0.999452)" d="M20.786 39.6323C15.7276 35.6016 11.0217 30.7523 7.42475 25.3632C17.8683 26.7562 28.0981 29.4426 37.8786 33.36C42.1276 35.0278 46.2786 36.8598 50.2876 39.0509C52.6722 40.3712 54.9736 41.8374 57.1781 43.4403C58.0447 44.0742 59.0351 45.2157 59.965 45.6573L59.9941 45.6C59.9586 45.4682 59.9503 45.3523 59.9464 45.2163C59.1573 44.0755 58.0162 43.0624 57.0236 42.0912C49.3375 34.5731 38.342 30.3715 28.2197 27.3078C23.7152 25.9107 19.1332 24.7773 14.4968 23.9133C11.2687 23.3242 8.12738 22.833 4.83765 22.7792C4.71071 22.7771 4.57572 22.7705 4.4368 22.7638C3.99602 22.7422 3.51569 22.7188 3.1277 22.8317C3.04533 23.5075 6.90952 29.0246 7.44872 29.7133C10.9283 34.1882 14.9312 38.2307 19.3719 41.7539C20.644 42.7744 21.9912 44.1389 23.677 44.3306C24.3789 44.4106 26.4351 44.5178 27.0476 44.3053L27.1103 44.207C26.9324 43.8163 25.9554 43.4371 25.5615 43.184C23.9128 42.1258 22.3182 40.8531 20.786 39.6323Z"/><path fill="white" transform="scale(0.999203 0.999452)" d="M60.3884 45.8848C60.3433 45.5843 60.148 45.4256 59.9464 45.2163C59.9503 45.3523 59.9586 45.4682 59.9941 45.6L59.965 45.6573C60.1064 45.8058 60.1519 45.912 60.3602 45.9341L60.3884 45.8848Z"/><path fill="white" transform="scale(0.999203 0.999452)" d="M82.5871 80.0936Q82.5871 72.4251 85.6853 66.6244Q88.7834 60.8236 94.2766 57.6815Q99.7698 54.5174 106.867 54.5174Q115.876 54.5174 121.764 58.8021Q127.675 63.0648 129.74 70.9969L118.666 70.9969Q117.326 67.3055 114.338 65.2401Q111.371 63.1527 106.867 63.1527Q100.583 63.1527 96.8474 67.6131Q93.112 72.0736 93.112 80.0936Q93.112 88.0916 96.8474 92.596Q100.583 97.1004 106.867 97.1004Q115.788 97.1004 118.666 89.2562L129.74 89.2562Q127.587 96.8148 121.633 101.275Q115.7 105.736 106.867 105.736Q99.7698 105.736 94.2766 102.55Q88.7834 99.3416 85.6853 93.5409Q82.5871 87.7401 82.5871 80.0936ZM161.504 105.736Q154.495 105.736 148.826 102.55Q143.157 99.3416 139.905 93.5409Q136.675 87.7401 136.675 80.0936Q136.675 72.513 139.993 66.6683Q143.333 60.8236 149.09 57.6815Q154.846 54.5174 161.965 54.5174Q169.063 54.5174 174.819 57.6815Q180.576 60.8236 183.916 66.6683Q187.256 72.513 187.256 80.0936Q187.256 87.6522 183.828 93.4969Q180.4 99.3416 174.512 102.55Q168.623 105.736 161.504 105.736ZM161.504 96.8148Q165.459 96.8148 168.931 94.9251Q172.402 93.0355 174.556 89.2562Q176.709 85.4769 176.709 80.0936Q176.709 74.6883 174.644 70.953Q172.578 67.2176 169.151 65.328Q165.745 63.4383 161.768 63.4383Q157.813 63.4383 154.429 65.328Q151.067 67.2176 149.09 70.953Q147.112 74.6883 147.112 80.0936Q147.112 88.0916 151.199 92.4642Q155.308 96.8148 161.504 96.8148ZM207.674 38.3236L207.674 104.923L197.413 104.923L197.413 38.3236L207.674 38.3236ZM226.402 48.7606Q223.611 48.7606 221.722 46.8709Q219.832 44.9813 219.832 42.1908Q219.832 39.4002 221.722 37.5106Q223.611 35.6209 226.402 35.6209Q229.105 35.6209 230.994 37.5106Q232.884 39.4002 232.884 42.1908Q232.884 44.9813 230.994 46.8709Q229.105 48.7606 226.402 48.7606ZM231.434 55.3304L231.434 104.923L221.172 104.923L221.172 55.3304L231.434 55.3304ZM241.527 79.8958Q241.527 72.4251 244.625 66.6683Q247.723 60.9115 253.084 57.7254Q258.446 54.5174 265.015 54.5174Q269.871 54.5174 274.596 56.6488Q279.32 58.7581 282.11 62.2518L282.11 38.3236L292.459 38.3236L292.459 104.923L282.11 104.923L282.11 97.452Q279.583 101.056 275.123 103.407Q270.684 105.736 264.928 105.736Q258.446 105.736 253.084 102.462Q247.723 99.1659 244.625 93.2772Q241.527 87.3665 241.527 79.8958ZM282.11 80.0936Q282.11 74.952 279.979 71.1727Q277.869 67.3934 274.442 65.4159Q271.036 63.4383 267.081 63.4383Q263.126 63.4383 259.698 65.3719Q256.27 67.3055 254.161 71.0409Q252.052 74.7762 252.052 79.8958Q252.052 85.0374 254.161 88.9046Q256.27 92.7718 259.742 94.7933Q263.214 96.8148 267.081 96.8148Q271.036 96.8148 274.442 94.8373Q277.869 92.8597 279.979 89.0365Q282.11 85.2132 282.11 80.0936ZM351.414 78.9071Q351.414 81.6976 351.04 83.9608L313.159 83.9608Q313.599 89.8934 317.554 93.4969Q321.531 97.1004 327.288 97.1004Q335.572 97.1004 338.977 90.1571L350.052 90.1571Q347.81 97.0125 341.9 101.385Q336.011 105.736 327.288 105.736Q320.169 105.736 314.544 102.55Q308.919 99.3416 305.733 93.5409Q302.547 87.7401 302.547 80.0936Q302.547 72.4251 305.645 66.6244Q308.743 60.8236 314.368 57.6815Q319.993 54.5174 327.288 54.5174Q334.297 54.5174 339.79 57.5936Q345.283 60.6478 348.338 66.1849Q351.414 71.722 351.414 78.9071ZM340.691 75.6771Q340.603 70.0081 336.648 66.5804Q332.693 63.1527 326.826 63.1527Q321.531 63.1527 317.752 66.5365Q313.972 69.9203 313.247 75.6771L340.691 75.6771ZM380.664 95.7381L394.705 55.3304L405.581 55.3304L386.685 104.923L374.446 104.923L355.638 55.3304L366.624 55.3304L380.664 95.7381ZM431.318 105.736Q425.473 105.736 420.837 103.626Q416.201 101.495 413.498 97.8695Q410.817 94.222 410.62 89.7176L421.254 89.7176Q421.518 92.8597 424.265 94.9911Q427.011 97.1004 431.142 97.1004Q435.471 97.1004 437.844 95.4305Q440.239 93.7606 440.239 91.1458Q440.239 88.3553 437.58 87.015Q434.921 85.6527 429.165 84.0487Q423.584 82.5106 420.068 81.0824Q416.574 79.6322 414.003 76.6659Q411.433 73.6996 411.433 68.8436Q411.433 64.8665 413.762 61.5926Q416.113 58.2967 420.463 56.4071Q424.836 54.5174 430.527 54.5174Q438.986 54.5174 444.15 58.8021Q449.336 63.0648 449.687 70.4476L439.426 70.4476Q439.162 67.1297 436.723 65.1522Q434.306 63.1527 430.153 63.1527Q426.11 63.1527 423.935 64.6908Q421.782 66.2289 421.782 68.7337Q421.782 70.7332 423.21 72.0736Q424.66 73.4139 426.726 74.183Q428.813 74.952 432.856 76.1165Q438.261 77.5667 441.711 79.0609Q445.183 80.5331 447.71 83.4115Q450.236 86.2899 450.324 91.058Q450.324 95.2987 447.973 98.6385Q445.644 101.956 441.359 103.846Q437.097 105.736 431.318 105.736Z"/></g></svg>